<svg width="68" height="10" viewBox="0 0 68 10" fill="none" xmlns="http://www.w3.org/2000/svg">
<path d="M6.156 1.116L3.792 9.348C3.776 9.404 3.756 9.444 3.732 9.468C3.708 9.5 3.672 9.516 3.624 9.516H3.096C3.048 9.516 3.012 9.5 2.988 9.468C2.964 9.444 2.944 9.404 2.928 9.348L0.288 0.767999C0.256 0.655999 0.3 0.599999 0.42 0.599999H0.612C0.716 0.599999 0.784 0.655999 0.816 0.767999L3.36 9.12L5.784 0.767999C5.816 0.655999 5.884 0.599999 5.988 0.599999H6.324C6.428 0.599999 6.496 0.655999 6.528 0.767999L8.952 9.12L11.496 0.767999C11.528 0.655999 11.596 0.599999 11.7 0.599999H11.892C12.012 0.599999 12.056 0.655999 12.024 0.767999L9.384 9.348C9.368 9.404 9.348 9.444 9.324 9.468C9.3 9.5 9.264 9.516 9.216 9.516H8.688C8.64 9.516 8.604 9.5 8.58 9.468C8.556 9.444 8.536 9.404 8.52 9.348L6.156 1.116ZM18.7323 6.276C18.7323 6.676 18.6763 7.08 18.5643 7.488C18.4523 7.888 18.2723 8.252 18.0243 8.58C17.7763 8.908 17.4603 9.176 17.0763 9.384C16.6923 9.592 16.2243 9.696 15.6723 9.696C15.1203 9.696 14.6523 9.592 14.2683 9.384C13.8843 9.176 13.5683 8.908 13.3203 8.58C13.0723 8.252 12.8923 7.888 12.7803 7.488C12.6683 7.08 12.6123 6.676 12.6123 6.276C12.6123 5.884 12.6683 5.484 12.7803 5.076C12.8923 4.668 13.0723 4.3 13.3203 3.972C13.5683 3.644 13.8843 3.376 14.2683 3.168C14.6523 2.96 15.1203 2.856 15.6723 2.856C16.2243 2.856 16.6923 2.96 17.0763 3.168C17.4603 3.376 17.7763 3.644 18.0243 3.972C18.2723 4.3 18.4523 4.668 18.5643 5.076C18.6763 5.484 18.7323 5.884 18.7323 6.276ZM18.2283 6.276C18.2283 5.924 18.1843 5.572 18.0963 5.22C18.0083 4.868 17.8603 4.552 17.6523 4.272C17.4523 3.984 17.1883 3.752 16.8603 3.576C16.5403 3.4 16.1443 3.312 15.6723 3.312C15.2003 3.312 14.8003 3.4 14.4723 3.576C14.1523 3.752 13.8883 3.984 13.6803 4.272C13.4803 4.552 13.3363 4.868 13.2483 5.22C13.1603 5.572 13.1163 5.924 13.1163 6.276C13.1163 6.628 13.1603 6.98 13.2483 7.332C13.3363 7.684 13.4803 8.004 13.6803 8.292C13.8883 8.572 14.1523 8.8 14.4723 8.976C14.8003 9.152 15.2003 9.24 15.6723 9.24C16.1443 9.24 16.5403 9.152 16.8603 8.976C17.1883 8.8 17.4523 8.572 17.6523 8.292C17.8603 8.004 18.0083 7.684 18.0963 7.332C18.1843 6.98 18.2283 6.628 18.2283 6.276ZM25.8656 5.1C25.8656 5.628 25.8216 6.164 25.7336 6.708C25.6536 7.244 25.5056 7.732 25.2896 8.172C25.0736 8.612 24.7736 8.968 24.3896 9.24C24.0136 9.52 23.5296 9.66 22.9376 9.66C22.3456 9.66 21.8576 9.52 21.4736 9.24C21.0976 8.968 20.8016 8.612 20.5856 8.172C20.3696 7.732 20.2176 7.244 20.1296 6.708C20.0496 6.164 20.0096 5.628 20.0096 5.1C20.0096 4.572 20.0496 4.04 20.1296 3.504C20.2176 2.96 20.3696 2.468 20.5856 2.028C20.8016 1.588 21.0976 1.232 21.4736 0.96C21.8576 0.68 22.3456 0.539999 22.9376 0.539999C23.5296 0.539999 24.0136 0.68 24.3896 0.96C24.7736 1.232 25.0736 1.588 25.2896 2.028C25.5056 2.468 25.6536 2.96 25.7336 3.504C25.8216 4.04 25.8656 4.572 25.8656 5.1ZM25.3616 5.1C25.3616 4.628 25.3256 4.152 25.2536 3.672C25.1816 3.184 25.0536 2.744 24.8696 2.352C24.6936 1.952 24.4456 1.628 24.1256 1.38C23.8136 1.124 23.4176 0.995999 22.9376 0.995999C22.4576 0.995999 22.0576 1.124 21.7376 1.38C21.4256 1.628 21.1776 1.952 20.9936 2.352C20.8176 2.744 20.6936 3.184 20.6216 3.672C20.5496 4.152 20.5136 4.628 20.5136 5.1C20.5136 5.572 20.5496 6.052 20.6216 6.54C20.6936 7.02 20.8176 7.46 20.9936 7.86C21.1776 8.252 21.4256 8.576 21.7376 8.832C22.0576 9.08 22.4576 9.204 22.9376 9.204C23.4176 9.204 23.8136 9.08 24.1256 8.832C24.4456 8.576 24.6936 8.252 24.8696 7.86C25.0536 7.46 25.1816 7.02 25.2536 6.54C25.3256 6.052 25.3616 5.572 25.3616 5.1ZM33.287 6.276C33.287 6.676 33.231 7.08 33.119 7.488C33.007 7.888 32.827 8.252 32.579 8.58C32.331 8.908 32.015 9.176 31.631 9.384C31.247 9.592 30.779 9.696 30.227 9.696C29.675 9.696 29.207 9.592 28.823 9.384C28.439 9.176 28.123 8.908 27.875 8.58C27.627 8.252 27.447 7.888 27.335 7.488C27.223 7.08 27.167 6.676 27.167 6.276C27.167 5.884 27.223 5.484 27.335 5.076C27.447 4.668 27.627 4.3 27.875 3.972C28.123 3.644 28.439 3.376 28.823 3.168C29.207 2.96 29.675 2.856 30.227 2.856C30.779 2.856 31.247 2.96 31.631 3.168C32.015 3.376 32.331 3.644 32.579 3.972C32.827 4.3 33.007 4.668 33.119 5.076C33.231 5.484 33.287 5.884 33.287 6.276ZM32.783 6.276C32.783 5.924 32.739 5.572 32.651 5.22C32.563 4.868 32.415 4.552 32.207 4.272C32.007 3.984 31.743 3.752 31.415 3.576C31.095 3.4 30.699 3.312 30.227 3.312C29.755 3.312 29.355 3.4 29.027 3.576C28.707 3.752 28.443 3.984 28.235 4.272C28.035 4.552 27.891 4.868 27.803 5.22C27.715 5.572 27.671 5.924 27.671 6.276C27.671 6.628 27.715 6.98 27.803 7.332C27.891 7.684 28.035 8.004 28.235 8.292C28.443 8.572 28.707 8.8 29.027 8.976C29.355 9.152 29.755 9.24 30.227 9.24C30.699 9.24 31.095 9.152 31.415 8.976C31.743 8.8 32.007 8.572 32.207 8.292C32.415 8.004 32.563 7.684 32.651 7.332C32.739 6.98 32.783 6.628 32.783 6.276ZM39.9763 1.116L37.6123 9.348C37.5963 9.404 37.5763 9.444 37.5523 9.468C37.5283 9.5 37.4923 9.516 37.4443 9.516H36.9163C36.8683 9.516 36.8323 9.5 36.8083 9.468C36.7843 9.444 36.7643 9.404 36.7483 9.348L34.1083 0.767999C34.0763 0.655999 34.1203 0.599999 34.2403 0.599999H34.4323C34.5363 0.599999 34.6043 0.655999 34.6363 0.767999L37.1803 9.12L39.6043 0.767999C39.6363 0.655999 39.7043 0.599999 39.8083 0.599999H40.1443C40.2483 0.599999 40.3163 0.655999 40.3483 0.767999L42.7723 9.12L45.3163 0.767999C45.3483 0.655999 45.4163 0.599999 45.5203 0.599999H45.7123C45.8323 0.599999 45.8763 0.655999 45.8443 0.767999L43.2043 9.348C43.1883 9.404 43.1683 9.444 43.1443 9.468C43.1203 9.5 43.0843 9.516 43.0363 9.516H42.5083C42.4603 9.516 42.4243 9.5 42.4003 9.468C42.3763 9.444 42.3563 9.404 42.3403 9.348L39.9763 1.116ZM52.5526 6.276C52.5526 6.676 52.4966 7.08 52.3846 7.488C52.2726 7.888 52.0926 8.252 51.8446 8.58C51.5966 8.908 51.2806 9.176 50.8966 9.384C50.5126 9.592 50.0446 9.696 49.4926 9.696C48.9406 9.696 48.4726 9.592 48.0886 9.384C47.7046 9.176 47.3886 8.908 47.1406 8.58C46.8926 8.252 46.7126 7.888 46.6006 7.488C46.4886 7.08 46.4326 6.676 46.4326 6.276C46.4326 5.884 46.4886 5.484 46.6006 5.076C46.7126 4.668 46.8926 4.3 47.1406 3.972C47.3886 3.644 47.7046 3.376 48.0886 3.168C48.4726 2.96 48.9406 2.856 49.4926 2.856C50.0446 2.856 50.5126 2.96 50.8966 3.168C51.2806 3.376 51.5966 3.644 51.8446 3.972C52.0926 4.3 52.2726 4.668 52.3846 5.076C52.4966 5.484 52.5526 5.884 52.5526 6.276ZM52.0486 6.276C52.0486 5.924 52.0046 5.572 51.9166 5.22C51.8286 4.868 51.6806 4.552 51.4726 4.272C51.2726 3.984 51.0086 3.752 50.6806 3.576C50.3606 3.4 49.9646 3.312 49.4926 3.312C49.0206 3.312 48.6206 3.4 48.2926 3.576C47.9726 3.752 47.7086 3.984 47.5006 4.272C47.3006 4.552 47.1566 4.868 47.0686 5.22C46.9806 5.572 46.9366 5.924 46.9366 6.276C46.9366 6.628 46.9806 6.98 47.0686 7.332C47.1566 7.684 47.3006 8.004 47.5006 8.292C47.7086 8.572 47.9726 8.8 48.2926 8.976C48.6206 9.152 49.0206 9.24 49.4926 9.24C49.9646 9.24 50.3606 9.152 50.6806 8.976C51.0086 8.8 51.2726 8.572 51.4726 8.292C51.6806 8.004 51.8286 7.684 51.9166 7.332C52.0046 6.98 52.0486 6.628 52.0486 6.276ZM59.6859 5.1C59.6859 5.628 59.6419 6.164 59.5539 6.708C59.4739 7.244 59.3259 7.732 59.1099 8.172C58.8939 8.612 58.5939 8.968 58.2099 9.24C57.8339 9.52 57.3499 9.66 56.7579 9.66C56.1659 9.66 55.6779 9.52 55.2939 9.24C54.9179 8.968 54.6219 8.612 54.4059 8.172C54.1899 7.732 54.0379 7.244 53.9499 6.708C53.8699 6.164 53.8299 5.628 53.8299 5.1C53.8299 4.572 53.8699 4.04 53.9499 3.504C54.0379 2.96 54.1899 2.468 54.4059 2.028C54.6219 1.588 54.9179 1.232 55.2939 0.96C55.6779 0.68 56.1659 0.539999 56.7579 0.539999C57.3499 0.539999 57.8339 0.68 58.2099 0.96C58.5939 1.232 58.8939 1.588 59.1099 2.028C59.3259 2.468 59.4739 2.96 59.5539 3.504C59.6419 4.04 59.6859 4.572 59.6859 5.1ZM59.1819 5.1C59.1819 4.628 59.1459 4.152 59.0739 3.672C59.0019 3.184 58.8739 2.744 58.6899 2.352C58.5139 1.952 58.2659 1.628 57.9459 1.38C57.6339 1.124 57.2379 0.995999 56.7579 0.995999C56.2779 0.995999 55.8779 1.124 55.5579 1.38C55.2459 1.628 54.9979 1.952 54.8139 2.352C54.6379 2.744 54.5139 3.184 54.4419 3.672C54.3699 4.152 54.3339 4.628 54.3339 5.1C54.3339 5.572 54.3699 6.052 54.4419 6.54C54.5139 7.02 54.6379 7.46 54.8139 7.86C54.9979 8.252 55.2459 8.576 55.5579 8.832C55.8779 9.08 56.2779 9.204 56.7579 9.204C57.2379 9.204 57.6339 9.08 57.9459 8.832C58.2659 8.576 58.5139 8.252 58.6899 7.86C58.8739 7.46 59.0019 7.02 59.0739 6.54C59.1459 6.052 59.1819 5.572 59.1819 5.1ZM67.1073 6.276C67.1073 6.676 67.0513 7.08 66.9393 7.488C66.8273 7.888 66.6473 8.252 66.3993 8.58C66.1513 8.908 65.8353 9.176 65.4513 9.384C65.0673 9.592 64.5993 9.696 64.0473 9.696C63.4953 9.696 63.0273 9.592 62.6433 9.384C62.2593 9.176 61.9433 8.908 61.6953 8.58C61.4473 8.252 61.2673 7.888 61.1553 7.488C61.0433 7.08 60.9873 6.676 60.9873 6.276C60.9873 5.884 61.0433 5.484 61.1553 5.076C61.2673 4.668 61.4473 4.3 61.6953 3.972C61.9433 3.644 62.2593 3.376 62.6433 3.168C63.0273 2.96 63.4953 2.856 64.0473 2.856C64.5993 2.856 65.0673 2.96 65.4513 3.168C65.8353 3.376 66.1513 3.644 66.3993 3.972C66.6473 4.3 66.8273 4.668 66.9393 5.076C67.0513 5.484 67.1073 5.884 67.1073 6.276ZM66.6033 6.276C66.6033 5.924 66.5593 5.572 66.4713 5.22C66.3833 4.868 66.2353 4.552 66.0273 4.272C65.8273 3.984 65.5633 3.752 65.2353 3.576C64.9153 3.4 64.5193 3.312 64.0473 3.312C63.5753 3.312 63.1753 3.4 62.8473 3.576C62.5273 3.752 62.2633 3.984 62.0553 4.272C61.8553 4.552 61.7113 4.868 61.6233 5.22C61.5353 5.572 61.4913 5.924 61.4913 6.276C61.4913 6.628 61.5353 6.98 61.6233 7.332C61.7113 7.684 61.8553 8.004 62.0553 8.292C62.2633 8.572 62.5273 8.8 62.8473 8.976C63.1753 9.152 63.5753 9.24 64.0473 9.24C64.5193 9.24 64.9153 9.152 65.2353 8.976C65.5633 8.8 65.8273 8.572 66.0273 8.292C66.2353 8.004 66.3833 7.684 66.4713 7.332C66.5593 6.98 66.6033 6.628 66.6033 6.276Z" fill="black"/>
</svg>
