<svg width="30" height="30" viewBox="0 0 30 30" fill="none" xmlns="http://www.w3.org/2000/svg">
<rect width="30" height="30" fill="#FF971D"/>
<circle cx="15" cy="14" r="9.5" fill="white" fill-opacity="0.95" stroke="black" stroke-linejoin="bevel"/>
<path d="M11.242 11.929C11.242 11.7264 11.1723 11.5554 11.033 11.416C10.8937 11.2704 10.7227 11.1975 10.52 11.1975C10.3173 11.1975 10.1463 11.2704 10.007 11.416C9.86767 11.5554 9.798 11.7264 9.798 11.929C9.798 12.1317 9.86767 12.3059 10.007 12.4515C10.1463 12.5909 10.3173 12.6605 10.52 12.6605C10.7227 12.6605 10.8937 12.5909 11.033 12.4515C11.1723 12.3059 11.242 12.1317 11.242 11.929ZM11.5365 11.929C11.5365 12.0684 11.508 12.2014 11.451 12.328C11.4003 12.4484 11.3275 12.556 11.2325 12.651C11.1438 12.7397 11.0362 12.8125 10.9095 12.8695C10.7892 12.9202 10.6593 12.9455 10.52 12.9455C10.3807 12.9455 10.2477 12.9202 10.121 12.8695C10.0007 12.8125 9.893 12.7397 9.798 12.651C9.70933 12.556 9.6365 12.4484 9.5795 12.328C9.52883 12.2014 9.5035 12.0684 9.5035 11.929C9.5035 11.7897 9.52883 11.6599 9.5795 11.5395C9.6365 11.4129 9.70933 11.3052 9.798 11.2165C9.893 11.1215 10.0007 11.0487 10.121 10.998C10.2477 10.941 10.3807 10.9125 10.52 10.9125C10.6593 10.9125 10.7892 10.941 10.9095 10.998C11.0362 11.0487 11.1438 11.1215 11.2325 11.2165C11.3275 11.3052 11.4003 11.4129 11.451 11.5395C11.508 11.6599 11.5365 11.7897 11.5365 11.929ZM16.5935 14.6935C16.5935 12.7049 16.0488 11.7105 14.9595 11.7105C13.8701 11.7105 13.3255 12.7049 13.3255 14.6935C13.3255 16.6885 13.8701 17.686 14.9595 17.686C16.0488 17.686 16.5935 16.6885 16.5935 14.6935ZM17.2775 14.6935C17.2775 17.0875 16.5048 18.2845 14.9595 18.2845C13.4015 18.2845 12.6225 17.0875 12.6225 14.6935C12.6225 13.6992 12.7745 12.8917 13.0785 12.271C13.4648 11.492 14.0918 11.1025 14.9595 11.1025C15.8145 11.1025 16.4383 11.492 16.831 12.271C16.9766 12.5814 17.0875 12.936 17.1635 13.335C17.2395 13.734 17.2775 14.1869 17.2775 14.6935ZM20.0462 11.929C20.0462 11.7264 19.9765 11.5554 19.8372 11.416C19.6979 11.2704 19.5269 11.1975 19.3242 11.1975C19.1215 11.1975 18.9505 11.2704 18.8112 11.416C18.6719 11.5554 18.6022 11.7264 18.6022 11.929C18.6022 12.1317 18.6719 12.3059 18.8112 12.4515C18.9505 12.5909 19.1215 12.6605 19.3242 12.6605C19.5269 12.6605 19.6979 12.5909 19.8372 12.4515C19.9765 12.3059 20.0462 12.1317 20.0462 11.929ZM20.3407 11.929C20.3407 12.0684 20.3122 12.2014 20.2552 12.328C20.2045 12.4484 20.1317 12.556 20.0367 12.651C19.948 12.7397 19.8404 12.8125 19.7137 12.8695C19.5934 12.9202 19.4635 12.9455 19.3242 12.9455C19.1849 12.9455 19.0519 12.9202 18.9252 12.8695C18.8049 12.8125 18.6972 12.7397 18.6022 12.651C18.5135 12.556 18.4407 12.4484 18.3837 12.328C18.333 12.2014 18.3077 12.0684 18.3077 11.929C18.3077 11.7897 18.333 11.6599 18.3837 11.5395C18.4407 11.4129 18.5135 11.3052 18.6022 11.2165C18.6972 11.1215 18.8049 11.0487 18.9252 10.998C19.0519 10.941 19.1849 10.9125 19.3242 10.9125C19.4635 10.9125 19.5934 10.941 19.7137 10.998C19.8404 11.0487 19.948 11.1215 20.0367 11.2165C20.1317 11.3052 20.2045 11.4129 20.2552 11.5395C20.3122 11.6599 20.3407 11.7897 20.3407 11.929Z" fill="black"/>
</svg>
