<svg width="90" height="30" viewBox="0 0 90 30" fill="none" xmlns="http://www.w3.org/2000/svg">
<rect width="90" height="30" fill="white"/>
<path d="M17.156 11.116L14.792 19.348C14.776 19.404 14.756 19.444 14.732 19.468C14.708 19.5 14.672 19.516 14.624 19.516H14.096C14.048 19.516 14.012 19.5 13.988 19.468C13.964 19.444 13.944 19.404 13.928 19.348L11.288 10.768C11.256 10.656 11.3 10.6 11.42 10.6H11.612C11.716 10.6 11.784 10.656 11.816 10.768L14.36 19.12L16.784 10.768C16.816 10.656 16.884 10.6 16.988 10.6H17.324C17.428 10.6 17.496 10.656 17.528 10.768L19.952 19.12L22.496 10.768C22.528 10.656 22.596 10.6 22.7 10.6H22.892C23.012 10.6 23.056 10.656 23.024 10.768L20.384 19.348C20.368 19.404 20.348 19.444 20.324 19.468C20.3 19.5 20.264 19.516 20.216 19.516H19.688C19.64 19.516 19.604 19.5 19.58 19.468C19.556 19.444 19.536 19.404 19.52 19.348L17.156 11.116ZM29.7323 16.276C29.7323 16.676 29.6763 17.08 29.5643 17.488C29.4523 17.888 29.2723 18.252 29.0243 18.58C28.7763 18.908 28.4603 19.176 28.0763 19.384C27.6923 19.592 27.2243 19.696 26.6723 19.696C26.1203 19.696 25.6523 19.592 25.2683 19.384C24.8843 19.176 24.5683 18.908 24.3203 18.58C24.0723 18.252 23.8923 17.888 23.7803 17.488C23.6683 17.08 23.6123 16.676 23.6123 16.276C23.6123 15.884 23.6683 15.484 23.7803 15.076C23.8923 14.668 24.0723 14.3 24.3203 13.972C24.5683 13.644 24.8843 13.376 25.2683 13.168C25.6523 12.96 26.1203 12.856 26.6723 12.856C27.2243 12.856 27.6923 12.96 28.0763 13.168C28.4603 13.376 28.7763 13.644 29.0243 13.972C29.2723 14.3 29.4523 14.668 29.5643 15.076C29.6763 15.484 29.7323 15.884 29.7323 16.276ZM29.2283 16.276C29.2283 15.924 29.1843 15.572 29.0963 15.22C29.0083 14.868 28.8603 14.552 28.6523 14.272C28.4523 13.984 28.1883 13.752 27.8603 13.576C27.5403 13.4 27.1443 13.312 26.6723 13.312C26.2003 13.312 25.8003 13.4 25.4723 13.576C25.1523 13.752 24.8883 13.984 24.6803 14.272C24.4803 14.552 24.3363 14.868 24.2483 15.22C24.1603 15.572 24.1163 15.924 24.1163 16.276C24.1163 16.628 24.1603 16.98 24.2483 17.332C24.3363 17.684 24.4803 18.004 24.6803 18.292C24.8883 18.572 25.1523 18.8 25.4723 18.976C25.8003 19.152 26.2003 19.24 26.6723 19.24C27.1443 19.24 27.5403 19.152 27.8603 18.976C28.1883 18.8 28.4523 18.572 28.6523 18.292C28.8603 18.004 29.0083 17.684 29.0963 17.332C29.1843 16.98 29.2283 16.628 29.2283 16.276ZM36.8656 15.1C36.8656 15.628 36.8216 16.164 36.7336 16.708C36.6536 17.244 36.5056 17.732 36.2896 18.172C36.0736 18.612 35.7736 18.968 35.3896 19.24C35.0136 19.52 34.5296 19.66 33.9376 19.66C33.3456 19.66 32.8576 19.52 32.4736 19.24C32.0976 18.968 31.8016 18.612 31.5856 18.172C31.3696 17.732 31.2176 17.244 31.1296 16.708C31.0496 16.164 31.0096 15.628 31.0096 15.1C31.0096 14.572 31.0496 14.04 31.1296 13.504C31.2176 12.96 31.3696 12.468 31.5856 12.028C31.8016 11.588 32.0976 11.232 32.4736 10.96C32.8576 10.68 33.3456 10.54 33.9376 10.54C34.5296 10.54 35.0136 10.68 35.3896 10.96C35.7736 11.232 36.0736 11.588 36.2896 12.028C36.5056 12.468 36.6536 12.96 36.7336 13.504C36.8216 14.04 36.8656 14.572 36.8656 15.1ZM36.3616 15.1C36.3616 14.628 36.3256 14.152 36.2536 13.672C36.1816 13.184 36.0536 12.744 35.8696 12.352C35.6936 11.952 35.4456 11.628 35.1256 11.38C34.8136 11.124 34.4176 10.996 33.9376 10.996C33.4576 10.996 33.0576 11.124 32.7376 11.38C32.4256 11.628 32.1776 11.952 31.9936 12.352C31.8176 12.744 31.6936 13.184 31.6216 13.672C31.5496 14.152 31.5136 14.628 31.5136 15.1C31.5136 15.572 31.5496 16.052 31.6216 16.54C31.6936 17.02 31.8176 17.46 31.9936 17.86C32.1776 18.252 32.4256 18.576 32.7376 18.832C33.0576 19.08 33.4576 19.204 33.9376 19.204C34.4176 19.204 34.8136 19.08 35.1256 18.832C35.4456 18.576 35.6936 18.252 35.8696 17.86C36.0536 17.46 36.1816 17.02 36.2536 16.54C36.3256 16.052 36.3616 15.572 36.3616 15.1ZM44.287 16.276C44.287 16.676 44.231 17.08 44.119 17.488C44.007 17.888 43.827 18.252 43.579 18.58C43.331 18.908 43.015 19.176 42.631 19.384C42.247 19.592 41.779 19.696 41.227 19.696C40.675 19.696 40.207 19.592 39.823 19.384C39.439 19.176 39.123 18.908 38.875 18.58C38.627 18.252 38.447 17.888 38.335 17.488C38.223 17.08 38.167 16.676 38.167 16.276C38.167 15.884 38.223 15.484 38.335 15.076C38.447 14.668 38.627 14.3 38.875 13.972C39.123 13.644 39.439 13.376 39.823 13.168C40.207 12.96 40.675 12.856 41.227 12.856C41.779 12.856 42.247 12.96 42.631 13.168C43.015 13.376 43.331 13.644 43.579 13.972C43.827 14.3 44.007 14.668 44.119 15.076C44.231 15.484 44.287 15.884 44.287 16.276ZM43.783 16.276C43.783 15.924 43.739 15.572 43.651 15.22C43.563 14.868 43.415 14.552 43.207 14.272C43.007 13.984 42.743 13.752 42.415 13.576C42.095 13.4 41.699 13.312 41.227 13.312C40.755 13.312 40.355 13.4 40.027 13.576C39.707 13.752 39.443 13.984 39.235 14.272C39.035 14.552 38.891 14.868 38.803 15.22C38.715 15.572 38.671 15.924 38.671 16.276C38.671 16.628 38.715 16.98 38.803 17.332C38.891 17.684 39.035 18.004 39.235 18.292C39.443 18.572 39.707 18.8 40.027 18.976C40.355 19.152 40.755 19.24 41.227 19.24C41.699 19.24 42.095 19.152 42.415 18.976C42.743 18.8 43.007 18.572 43.207 18.292C43.415 18.004 43.563 17.684 43.651 17.332C43.739 16.98 43.783 16.628 43.783 16.276ZM50.9763 11.116L48.6123 19.348C48.5963 19.404 48.5763 19.444 48.5523 19.468C48.5283 19.5 48.4923 19.516 48.4443 19.516H47.9163C47.8683 19.516 47.8323 19.5 47.8083 19.468C47.7843 19.444 47.7643 19.404 47.7483 19.348L45.1083 10.768C45.0763 10.656 45.1203 10.6 45.2403 10.6H45.4323C45.5363 10.6 45.6043 10.656 45.6363 10.768L48.1803 19.12L50.6043 10.768C50.6363 10.656 50.7043 10.6 50.8083 10.6H51.1443C51.2483 10.6 51.3163 10.656 51.3483 10.768L53.7723 19.12L56.3163 10.768C56.3483 10.656 56.4163 10.6 56.5203 10.6H56.7123C56.8323 10.6 56.8763 10.656 56.8443 10.768L54.2043 19.348C54.1883 19.404 54.1683 19.444 54.1443 19.468C54.1203 19.5 54.0843 19.516 54.0363 19.516H53.5083C53.4603 19.516 53.4243 19.5 53.4003 19.468C53.3763 19.444 53.3563 19.404 53.3403 19.348L50.9763 11.116ZM63.5526 16.276C63.5526 16.676 63.4966 17.08 63.3846 17.488C63.2726 17.888 63.0926 18.252 62.8446 18.58C62.5966 18.908 62.2806 19.176 61.8966 19.384C61.5126 19.592 61.0446 19.696 60.4926 19.696C59.9406 19.696 59.4726 19.592 59.0886 19.384C58.7046 19.176 58.3886 18.908 58.1406 18.58C57.8926 18.252 57.7126 17.888 57.6006 17.488C57.4886 17.08 57.4326 16.676 57.4326 16.276C57.4326 15.884 57.4886 15.484 57.6006 15.076C57.7126 14.668 57.8926 14.3 58.1406 13.972C58.3886 13.644 58.7046 13.376 59.0886 13.168C59.4726 12.96 59.9406 12.856 60.4926 12.856C61.0446 12.856 61.5126 12.96 61.8966 13.168C62.2806 13.376 62.5966 13.644 62.8446 13.972C63.0926 14.3 63.2726 14.668 63.3846 15.076C63.4966 15.484 63.5526 15.884 63.5526 16.276ZM63.0486 16.276C63.0486 15.924 63.0046 15.572 62.9166 15.22C62.8286 14.868 62.6806 14.552 62.4726 14.272C62.2726 13.984 62.0086 13.752 61.6806 13.576C61.3606 13.4 60.9646 13.312 60.4926 13.312C60.0206 13.312 59.6206 13.4 59.2926 13.576C58.9726 13.752 58.7086 13.984 58.5006 14.272C58.3006 14.552 58.1566 14.868 58.0686 15.22C57.9806 15.572 57.9366 15.924 57.9366 16.276C57.9366 16.628 57.9806 16.98 58.0686 17.332C58.1566 17.684 58.3006 18.004 58.5006 18.292C58.7086 18.572 58.9726 18.8 59.2926 18.976C59.6206 19.152 60.0206 19.24 60.4926 19.24C60.9646 19.24 61.3606 19.152 61.6806 18.976C62.0086 18.8 62.2726 18.572 62.4726 18.292C62.6806 18.004 62.8286 17.684 62.9166 17.332C63.0046 16.98 63.0486 16.628 63.0486 16.276ZM70.6859 15.1C70.6859 15.628 70.6419 16.164 70.5539 16.708C70.4739 17.244 70.3259 17.732 70.1099 18.172C69.8939 18.612 69.5939 18.968 69.2099 19.24C68.8339 19.52 68.3499 19.66 67.7579 19.66C67.1659 19.66 66.6779 19.52 66.2939 19.24C65.9179 18.968 65.6219 18.612 65.4059 18.172C65.1899 17.732 65.0379 17.244 64.9499 16.708C64.8699 16.164 64.8299 15.628 64.8299 15.1C64.8299 14.572 64.8699 14.04 64.9499 13.504C65.0379 12.96 65.1899 12.468 65.4059 12.028C65.6219 11.588 65.9179 11.232 66.2939 10.96C66.6779 10.68 67.1659 10.54 67.7579 10.54C68.3499 10.54 68.8339 10.68 69.2099 10.96C69.5939 11.232 69.8939 11.588 70.1099 12.028C70.3259 12.468 70.4739 12.96 70.5539 13.504C70.6419 14.04 70.6859 14.572 70.6859 15.1ZM70.1819 15.1C70.1819 14.628 70.1459 14.152 70.0739 13.672C70.0019 13.184 69.8739 12.744 69.6899 12.352C69.5139 11.952 69.2659 11.628 68.9459 11.38C68.6339 11.124 68.2379 10.996 67.7579 10.996C67.2779 10.996 66.8779 11.124 66.5579 11.38C66.2459 11.628 65.9979 11.952 65.8139 12.352C65.6379 12.744 65.5139 13.184 65.4419 13.672C65.3699 14.152 65.3339 14.628 65.3339 15.1C65.3339 15.572 65.3699 16.052 65.4419 16.54C65.5139 17.02 65.6379 17.46 65.8139 17.86C65.9979 18.252 66.2459 18.576 66.5579 18.832C66.8779 19.08 67.2779 19.204 67.7579 19.204C68.2379 19.204 68.6339 19.08 68.9459 18.832C69.2659 18.576 69.5139 18.252 69.6899 17.86C69.8739 17.46 70.0019 17.02 70.0739 16.54C70.1459 16.052 70.1819 15.572 70.1819 15.1ZM78.1073 16.276C78.1073 16.676 78.0513 17.08 77.9393 17.488C77.8273 17.888 77.6473 18.252 77.3993 18.58C77.1513 18.908 76.8353 19.176 76.4513 19.384C76.0673 19.592 75.5993 19.696 75.0473 19.696C74.4953 19.696 74.0273 19.592 73.6433 19.384C73.2593 19.176 72.9433 18.908 72.6953 18.58C72.4473 18.252 72.2673 17.888 72.1553 17.488C72.0433 17.08 71.9873 16.676 71.9873 16.276C71.9873 15.884 72.0433 15.484 72.1553 15.076C72.2673 14.668 72.4473 14.3 72.6953 13.972C72.9433 13.644 73.2593 13.376 73.6433 13.168C74.0273 12.96 74.4953 12.856 75.0473 12.856C75.5993 12.856 76.0673 12.96 76.4513 13.168C76.8353 13.376 77.1513 13.644 77.3993 13.972C77.6473 14.3 77.8273 14.668 77.9393 15.076C78.0513 15.484 78.1073 15.884 78.1073 16.276ZM77.6033 16.276C77.6033 15.924 77.5593 15.572 77.4713 15.22C77.3833 14.868 77.2353 14.552 77.0273 14.272C76.8273 13.984 76.5633 13.752 76.2353 13.576C75.9153 13.4 75.5193 13.312 75.0473 13.312C74.5753 13.312 74.1753 13.4 73.8473 13.576C73.5273 13.752 73.2633 13.984 73.0553 14.272C72.8553 14.552 72.7113 14.868 72.6233 15.22C72.5353 15.572 72.4913 15.924 72.4913 16.276C72.4913 16.628 72.5353 16.98 72.6233 17.332C72.7113 17.684 72.8553 18.004 73.0553 18.292C73.2633 18.572 73.5273 18.8 73.8473 18.976C74.1753 19.152 74.5753 19.24 75.0473 19.24C75.5193 19.24 75.9153 19.152 76.2353 18.976C76.5633 18.8 76.8273 18.572 77.0273 18.292C77.2353 18.004 77.3833 17.684 77.4713 17.332C77.5593 16.98 77.6033 16.628 77.6033 16.276Z" fill="black"/>
</svg>
