<svg width="120" height="30" viewBox="0 0 120 30" fill="none" xmlns="http://www.w3.org/2000/svg">
<rect width="120" height="30" fill="black"/>
<rect width="120" height="30" fill="white"/>
<path d="M47.156 11.116L44.792 19.348C44.776 19.404 44.756 19.444 44.732 19.468C44.708 19.5 44.672 19.516 44.624 19.516H44.096C44.048 19.516 44.012 19.5 43.988 19.468C43.964 19.444 43.944 19.404 43.928 19.348L41.288 10.768C41.256 10.656 41.3 10.6 41.42 10.6H41.612C41.716 10.6 41.784 10.656 41.816 10.768L44.36 19.12L46.784 10.768C46.816 10.656 46.884 10.6 46.988 10.6H47.324C47.428 10.6 47.496 10.656 47.528 10.768L49.952 19.12L52.496 10.768C52.528 10.656 52.596 10.6 52.7 10.6H52.892C53.012 10.6 53.056 10.656 53.024 10.768L50.384 19.348C50.368 19.404 50.348 19.444 50.324 19.468C50.3 19.5 50.264 19.516 50.216 19.516H49.688C49.64 19.516 49.604 19.5 49.58 19.468C49.556 19.444 49.536 19.404 49.52 19.348L47.156 11.116ZM59.7323 16.276C59.7323 16.676 59.6763 17.08 59.5643 17.488C59.4523 17.888 59.2723 18.252 59.0243 18.58C58.7763 18.908 58.4603 19.176 58.0763 19.384C57.6923 19.592 57.2243 19.696 56.6723 19.696C56.1203 19.696 55.6523 19.592 55.2683 19.384C54.8843 19.176 54.5683 18.908 54.3203 18.58C54.0723 18.252 53.8923 17.888 53.7803 17.488C53.6683 17.08 53.6123 16.676 53.6123 16.276C53.6123 15.884 53.6683 15.484 53.7803 15.076C53.8923 14.668 54.0723 14.3 54.3203 13.972C54.5683 13.644 54.8843 13.376 55.2683 13.168C55.6523 12.96 56.1203 12.856 56.6723 12.856C57.2243 12.856 57.6923 12.96 58.0763 13.168C58.4603 13.376 58.7763 13.644 59.0243 13.972C59.2723 14.3 59.4523 14.668 59.5643 15.076C59.6763 15.484 59.7323 15.884 59.7323 16.276ZM59.2283 16.276C59.2283 15.924 59.1843 15.572 59.0963 15.22C59.0083 14.868 58.8603 14.552 58.6523 14.272C58.4523 13.984 58.1883 13.752 57.8603 13.576C57.5403 13.4 57.1443 13.312 56.6723 13.312C56.2003 13.312 55.8003 13.4 55.4723 13.576C55.1523 13.752 54.8883 13.984 54.6803 14.272C54.4803 14.552 54.3363 14.868 54.2483 15.22C54.1603 15.572 54.1163 15.924 54.1163 16.276C54.1163 16.628 54.1603 16.98 54.2483 17.332C54.3363 17.684 54.4803 18.004 54.6803 18.292C54.8883 18.572 55.1523 18.8 55.4723 18.976C55.8003 19.152 56.2003 19.24 56.6723 19.24C57.1443 19.24 57.5403 19.152 57.8603 18.976C58.1883 18.8 58.4523 18.572 58.6523 18.292C58.8603 18.004 59.0083 17.684 59.0963 17.332C59.1843 16.98 59.2283 16.628 59.2283 16.276ZM66.8656 15.1C66.8656 15.628 66.8216 16.164 66.7336 16.708C66.6536 17.244 66.5056 17.732 66.2896 18.172C66.0736 18.612 65.7736 18.968 65.3896 19.24C65.0136 19.52 64.5296 19.66 63.9376 19.66C63.3456 19.66 62.8576 19.52 62.4736 19.24C62.0976 18.968 61.8016 18.612 61.5856 18.172C61.3696 17.732 61.2176 17.244 61.1296 16.708C61.0496 16.164 61.0096 15.628 61.0096 15.1C61.0096 14.572 61.0496 14.04 61.1296 13.504C61.2176 12.96 61.3696 12.468 61.5856 12.028C61.8016 11.588 62.0976 11.232 62.4736 10.96C62.8576 10.68 63.3456 10.54 63.9376 10.54C64.5296 10.54 65.0136 10.68 65.3896 10.96C65.7736 11.232 66.0736 11.588 66.2896 12.028C66.5056 12.468 66.6536 12.96 66.7336 13.504C66.8216 14.04 66.8656 14.572 66.8656 15.1ZM66.3616 15.1C66.3616 14.628 66.3256 14.152 66.2536 13.672C66.1816 13.184 66.0536 12.744 65.8696 12.352C65.6936 11.952 65.4456 11.628 65.1256 11.38C64.8136 11.124 64.4176 10.996 63.9376 10.996C63.4576 10.996 63.0576 11.124 62.7376 11.38C62.4256 11.628 62.1776 11.952 61.9936 12.352C61.8176 12.744 61.6936 13.184 61.6216 13.672C61.5496 14.152 61.5136 14.628 61.5136 15.1C61.5136 15.572 61.5496 16.052 61.6216 16.54C61.6936 17.02 61.8176 17.46 61.9936 17.86C62.1776 18.252 62.4256 18.576 62.7376 18.832C63.0576 19.08 63.4576 19.204 63.9376 19.204C64.4176 19.204 64.8136 19.08 65.1256 18.832C65.4456 18.576 65.6936 18.252 65.8696 17.86C66.0536 17.46 66.1816 17.02 66.2536 16.54C66.3256 16.052 66.3616 15.572 66.3616 15.1ZM74.287 16.276C74.287 16.676 74.231 17.08 74.119 17.488C74.007 17.888 73.827 18.252 73.579 18.58C73.331 18.908 73.015 19.176 72.631 19.384C72.247 19.592 71.779 19.696 71.227 19.696C70.675 19.696 70.207 19.592 69.823 19.384C69.439 19.176 69.123 18.908 68.875 18.58C68.627 18.252 68.447 17.888 68.335 17.488C68.223 17.08 68.167 16.676 68.167 16.276C68.167 15.884 68.223 15.484 68.335 15.076C68.447 14.668 68.627 14.3 68.875 13.972C69.123 13.644 69.439 13.376 69.823 13.168C70.207 12.96 70.675 12.856 71.227 12.856C71.779 12.856 72.247 12.96 72.631 13.168C73.015 13.376 73.331 13.644 73.579 13.972C73.827 14.3 74.007 14.668 74.119 15.076C74.231 15.484 74.287 15.884 74.287 16.276ZM73.783 16.276C73.783 15.924 73.739 15.572 73.651 15.22C73.563 14.868 73.415 14.552 73.207 14.272C73.007 13.984 72.743 13.752 72.415 13.576C72.095 13.4 71.699 13.312 71.227 13.312C70.755 13.312 70.355 13.4 70.027 13.576C69.707 13.752 69.443 13.984 69.235 14.272C69.035 14.552 68.891 14.868 68.803 15.22C68.715 15.572 68.671 15.924 68.671 16.276C68.671 16.628 68.715 16.98 68.803 17.332C68.891 17.684 69.035 18.004 69.235 18.292C69.443 18.572 69.707 18.8 70.027 18.976C70.355 19.152 70.755 19.24 71.227 19.24C71.699 19.24 72.095 19.152 72.415 18.976C72.743 18.8 73.007 18.572 73.207 18.292C73.415 18.004 73.563 17.684 73.651 17.332C73.739 16.98 73.783 16.628 73.783 16.276ZM80.9763 11.116L78.6123 19.348C78.5963 19.404 78.5763 19.444 78.5523 19.468C78.5283 19.5 78.4923 19.516 78.4443 19.516H77.9163C77.8683 19.516 77.8323 19.5 77.8083 19.468C77.7843 19.444 77.7643 19.404 77.7483 19.348L75.1083 10.768C75.0763 10.656 75.1203 10.6 75.2403 10.6H75.4323C75.5363 10.6 75.6043 10.656 75.6363 10.768L78.1803 19.12L80.6043 10.768C80.6363 10.656 80.7043 10.6 80.8083 10.6H81.1443C81.2483 10.6 81.3163 10.656 81.3483 10.768L83.7723 19.12L86.3163 10.768C86.3483 10.656 86.4163 10.6 86.5203 10.6H86.7123C86.8323 10.6 86.8763 10.656 86.8443 10.768L84.2043 19.348C84.1883 19.404 84.1683 19.444 84.1443 19.468C84.1203 19.5 84.0843 19.516 84.0363 19.516H83.5083C83.4603 19.516 83.4243 19.5 83.4003 19.468C83.3763 19.444 83.3563 19.404 83.3403 19.348L80.9763 11.116ZM93.5526 16.276C93.5526 16.676 93.4966 17.08 93.3846 17.488C93.2726 17.888 93.0926 18.252 92.8446 18.58C92.5966 18.908 92.2806 19.176 91.8966 19.384C91.5126 19.592 91.0446 19.696 90.4926 19.696C89.9406 19.696 89.4726 19.592 89.0886 19.384C88.7046 19.176 88.3886 18.908 88.1406 18.58C87.8926 18.252 87.7126 17.888 87.6006 17.488C87.4886 17.08 87.4326 16.676 87.4326 16.276C87.4326 15.884 87.4886 15.484 87.6006 15.076C87.7126 14.668 87.8926 14.3 88.1406 13.972C88.3886 13.644 88.7046 13.376 89.0886 13.168C89.4726 12.96 89.9406 12.856 90.4926 12.856C91.0446 12.856 91.5126 12.96 91.8966 13.168C92.2806 13.376 92.5966 13.644 92.8446 13.972C93.0926 14.3 93.2726 14.668 93.3846 15.076C93.4966 15.484 93.5526 15.884 93.5526 16.276ZM93.0486 16.276C93.0486 15.924 93.0046 15.572 92.9166 15.22C92.8286 14.868 92.6806 14.552 92.4726 14.272C92.2726 13.984 92.0086 13.752 91.6806 13.576C91.3606 13.4 90.9646 13.312 90.4926 13.312C90.0206 13.312 89.6206 13.4 89.2926 13.576C88.9726 13.752 88.7086 13.984 88.5006 14.272C88.3006 14.552 88.1566 14.868 88.0686 15.22C87.9806 15.572 87.9366 15.924 87.9366 16.276C87.9366 16.628 87.9806 16.98 88.0686 17.332C88.1566 17.684 88.3006 18.004 88.5006 18.292C88.7086 18.572 88.9726 18.8 89.2926 18.976C89.6206 19.152 90.0206 19.24 90.4926 19.24C90.9646 19.24 91.3606 19.152 91.6806 18.976C92.0086 18.8 92.2726 18.572 92.4726 18.292C92.6806 18.004 92.8286 17.684 92.9166 17.332C93.0046 16.98 93.0486 16.628 93.0486 16.276ZM100.686 15.1C100.686 15.628 100.642 16.164 100.554 16.708C100.474 17.244 100.326 17.732 100.11 18.172C99.8939 18.612 99.5939 18.968 99.2099 19.24C98.8339 19.52 98.3499 19.66 97.7579 19.66C97.1659 19.66 96.6779 19.52 96.2939 19.24C95.9179 18.968 95.6219 18.612 95.4059 18.172C95.1899 17.732 95.0379 17.244 94.9499 16.708C94.8699 16.164 94.8299 15.628 94.8299 15.1C94.8299 14.572 94.8699 14.04 94.9499 13.504C95.0379 12.96 95.1899 12.468 95.4059 12.028C95.6219 11.588 95.9179 11.232 96.2939 10.96C96.6779 10.68 97.1659 10.54 97.7579 10.54C98.3499 10.54 98.8339 10.68 99.2099 10.96C99.5939 11.232 99.8939 11.588 100.11 12.028C100.326 12.468 100.474 12.96 100.554 13.504C100.642 14.04 100.686 14.572 100.686 15.1ZM100.182 15.1C100.182 14.628 100.146 14.152 100.074 13.672C100.002 13.184 99.8739 12.744 99.6899 12.352C99.5139 11.952 99.2659 11.628 98.9459 11.38C98.6339 11.124 98.2379 10.996 97.7579 10.996C97.2779 10.996 96.8779 11.124 96.5579 11.38C96.2459 11.628 95.9979 11.952 95.8139 12.352C95.6379 12.744 95.5139 13.184 95.4419 13.672C95.3699 14.152 95.3339 14.628 95.3339 15.1C95.3339 15.572 95.3699 16.052 95.4419 16.54C95.5139 17.02 95.6379 17.46 95.8139 17.86C95.9979 18.252 96.2459 18.576 96.5579 18.832C96.8779 19.08 97.2779 19.204 97.7579 19.204C98.2379 19.204 98.6339 19.08 98.9459 18.832C99.2659 18.576 99.5139 18.252 99.6899 17.86C99.8739 17.46 100.002 17.02 100.074 16.54C100.146 16.052 100.182 15.572 100.182 15.1ZM108.107 16.276C108.107 16.676 108.051 17.08 107.939 17.488C107.827 17.888 107.647 18.252 107.399 18.58C107.151 18.908 106.835 19.176 106.451 19.384C106.067 19.592 105.599 19.696 105.047 19.696C104.495 19.696 104.027 19.592 103.643 19.384C103.259 19.176 102.943 18.908 102.695 18.58C102.447 18.252 102.267 17.888 102.155 17.488C102.043 17.08 101.987 16.676 101.987 16.276C101.987 15.884 102.043 15.484 102.155 15.076C102.267 14.668 102.447 14.3 102.695 13.972C102.943 13.644 103.259 13.376 103.643 13.168C104.027 12.96 104.495 12.856 105.047 12.856C105.599 12.856 106.067 12.96 106.451 13.168C106.835 13.376 107.151 13.644 107.399 13.972C107.647 14.3 107.827 14.668 107.939 15.076C108.051 15.484 108.107 15.884 108.107 16.276ZM107.603 16.276C107.603 15.924 107.559 15.572 107.471 15.22C107.383 14.868 107.235 14.552 107.027 14.272C106.827 13.984 106.563 13.752 106.235 13.576C105.915 13.4 105.519 13.312 105.047 13.312C104.575 13.312 104.175 13.4 103.847 13.576C103.527 13.752 103.263 13.984 103.055 14.272C102.855 14.552 102.711 14.868 102.623 15.22C102.535 15.572 102.491 15.924 102.491 16.276C102.491 16.628 102.535 16.98 102.623 17.332C102.711 17.684 102.855 18.004 103.055 18.292C103.263 18.572 103.527 18.8 103.847 18.976C104.175 19.152 104.575 19.24 105.047 19.24C105.519 19.24 105.915 19.152 106.235 18.976C106.563 18.8 106.827 18.572 107.027 18.292C107.235 18.004 107.383 17.684 107.471 17.332C107.559 16.98 107.603 16.628 107.603 16.276Z" fill="black"/>
<rect width="30" height="30" fill="#FF971D"/>
<circle cx="15" cy="14" r="9.5" fill="white" fill-opacity="0.95" stroke="black" stroke-linejoin="bevel"/>
<path d="M11.242 11.929C11.242 11.7264 11.1723 11.5554 11.033 11.416C10.8937 11.2704 10.7227 11.1975 10.52 11.1975C10.3173 11.1975 10.1463 11.2704 10.007 11.416C9.86767 11.5554 9.798 11.7264 9.798 11.929C9.798 12.1317 9.86767 12.3059 10.007 12.4515C10.1463 12.5909 10.3173 12.6605 10.52 12.6605C10.7227 12.6605 10.8937 12.5909 11.033 12.4515C11.1723 12.3059 11.242 12.1317 11.242 11.929ZM11.5365 11.929C11.5365 12.0684 11.508 12.2014 11.451 12.328C11.4003 12.4484 11.3275 12.556 11.2325 12.651C11.1438 12.7397 11.0362 12.8125 10.9095 12.8695C10.7892 12.9202 10.6593 12.9455 10.52 12.9455C10.3807 12.9455 10.2477 12.9202 10.121 12.8695C10.0007 12.8125 9.893 12.7397 9.798 12.651C9.70933 12.556 9.6365 12.4484 9.5795 12.328C9.52883 12.2014 9.5035 12.0684 9.5035 11.929C9.5035 11.7897 9.52883 11.6599 9.5795 11.5395C9.6365 11.4129 9.70933 11.3052 9.798 11.2165C9.893 11.1215 10.0007 11.0487 10.121 10.998C10.2477 10.941 10.3807 10.9125 10.52 10.9125C10.6593 10.9125 10.7892 10.941 10.9095 10.998C11.0362 11.0487 11.1438 11.1215 11.2325 11.2165C11.3275 11.3052 11.4003 11.4129 11.451 11.5395C11.508 11.6599 11.5365 11.7897 11.5365 11.929ZM16.5935 14.6935C16.5935 12.7049 16.0488 11.7105 14.9595 11.7105C13.8701 11.7105 13.3255 12.7049 13.3255 14.6935C13.3255 16.6885 13.8701 17.686 14.9595 17.686C16.0488 17.686 16.5935 16.6885 16.5935 14.6935ZM17.2775 14.6935C17.2775 17.0875 16.5048 18.2845 14.9595 18.2845C13.4015 18.2845 12.6225 17.0875 12.6225 14.6935C12.6225 13.6992 12.7745 12.8917 13.0785 12.271C13.4648 11.492 14.0918 11.1025 14.9595 11.1025C15.8145 11.1025 16.4383 11.492 16.831 12.271C16.9766 12.5814 17.0875 12.936 17.1635 13.335C17.2395 13.734 17.2775 14.1869 17.2775 14.6935ZM20.0462 11.929C20.0462 11.7264 19.9765 11.5554 19.8372 11.416C19.6979 11.2704 19.5269 11.1975 19.3242 11.1975C19.1215 11.1975 18.9505 11.2704 18.8112 11.416C18.6719 11.5554 18.6022 11.7264 18.6022 11.929C18.6022 12.1317 18.6719 12.3059 18.8112 12.4515C18.9505 12.5909 19.1215 12.6605 19.3242 12.6605C19.5269 12.6605 19.6979 12.5909 19.8372 12.4515C19.9765 12.3059 20.0462 12.1317 20.0462 11.929ZM20.3407 11.929C20.3407 12.0684 20.3122 12.2014 20.2552 12.328C20.2045 12.4484 20.1317 12.556 20.0367 12.651C19.948 12.7397 19.8404 12.8125 19.7137 12.8695C19.5934 12.9202 19.4635 12.9455 19.3242 12.9455C19.1849 12.9455 19.0519 12.9202 18.9252 12.8695C18.8049 12.8125 18.6972 12.7397 18.6022 12.651C18.5135 12.556 18.4407 12.4484 18.3837 12.328C18.333 12.2014 18.3077 12.0684 18.3077 11.929C18.3077 11.7897 18.333 11.6599 18.3837 11.5395C18.4407 11.4129 18.5135 11.3052 18.6022 11.2165C18.6972 11.1215 18.8049 11.0487 18.9252 10.998C19.0519 10.941 19.1849 10.9125 19.3242 10.9125C19.4635 10.9125 19.5934 10.941 19.7137 10.998C19.8404 11.0487 19.948 11.1215 20.0367 11.2165C20.1317 11.3052 20.2045 11.4129 20.2552 11.5395C20.3122 11.6599 20.3407 11.7897 20.3407 11.929Z" fill="black"/>
</svg>
