<svg width="20" height="20" viewBox="0 0 20 20" fill="none" xmlns="http://www.w3.org/2000/svg">
<circle cx="10" cy="10" r="9.5" fill="white" fill-opacity="0.95" stroke="black" stroke-linejoin="bevel"/>
<path d="M6.242 7.92905C6.242 7.72638 6.17233 7.55538 6.033 7.41605C5.89367 7.27038 5.72267 7.19755 5.52 7.19755C5.31733 7.19755 5.14633 7.27038 5.007 7.41605C4.86767 7.55538 4.798 7.72638 4.798 7.92905C4.798 8.13172 4.86767 8.30588 5.007 8.45155C5.14633 8.59088 5.31733 8.66055 5.52 8.66055C5.72267 8.66055 5.89367 8.59088 6.033 8.45155C6.17233 8.30588 6.242 8.13172 6.242 7.92905ZM6.5365 7.92905C6.5365 8.06838 6.508 8.20138 6.451 8.32805C6.40033 8.44838 6.3275 8.55605 6.2325 8.65105C6.14383 8.73972 6.03617 8.81255 5.9095 8.86955C5.78917 8.92022 5.65933 8.94555 5.52 8.94555C5.38067 8.94555 5.24767 8.92022 5.121 8.86955C5.00067 8.81255 4.893 8.73972 4.798 8.65105C4.70933 8.55605 4.6365 8.44838 4.5795 8.32805C4.52883 8.20138 4.5035 8.06838 4.5035 7.92905C4.5035 7.78972 4.52883 7.65988 4.5795 7.53955C4.6365 7.41288 4.70933 7.30522 4.798 7.21655C4.893 7.12155 5.00067 7.04872 5.121 6.99805C5.24767 6.94105 5.38067 6.91255 5.52 6.91255C5.65933 6.91255 5.78917 6.94105 5.9095 6.99805C6.03617 7.04872 6.14383 7.12155 6.2325 7.21655C6.3275 7.30522 6.40033 7.41288 6.451 7.53955C6.508 7.65988 6.5365 7.78972 6.5365 7.92905ZM11.5935 10.6935C11.5935 8.70488 11.0488 7.71055 9.95947 7.71055C8.87014 7.71055 8.32547 8.70488 8.32547 10.6935C8.32547 12.6885 8.87014 13.686 9.95947 13.686C11.0488 13.686 11.5935 12.6885 11.5935 10.6935ZM12.2775 10.6935C12.2775 13.0875 11.5048 14.2845 9.95947 14.2845C8.40147 14.2845 7.62247 13.0875 7.62247 10.6935C7.62247 9.69922 7.77447 8.89172 8.07847 8.27105C8.4648 7.49205 9.0918 7.10255 9.95947 7.10255C10.8145 7.10255 11.4383 7.49205 11.831 8.27105C11.9766 8.58138 12.0875 8.93605 12.1635 9.33505C12.2395 9.73405 12.2775 10.1869 12.2775 10.6935ZM15.0462 7.92905C15.0462 7.72638 14.9765 7.55538 14.8372 7.41605C14.6979 7.27038 14.5269 7.19755 14.3242 7.19755C14.1215 7.19755 13.9505 7.27038 13.8112 7.41605C13.6719 7.55538 13.6022 7.72638 13.6022 7.92905C13.6022 8.13172 13.6719 8.30588 13.8112 8.45155C13.9505 8.59088 14.1215 8.66055 14.3242 8.66055C14.5269 8.66055 14.6979 8.59088 14.8372 8.45155C14.9765 8.30588 15.0462 8.13172 15.0462 7.92905ZM15.3407 7.92905C15.3407 8.06838 15.3122 8.20138 15.2552 8.32805C15.2045 8.44838 15.1317 8.55605 15.0367 8.65105C14.948 8.73972 14.8404 8.81255 14.7137 8.86955C14.5934 8.92022 14.4635 8.94555 14.3242 8.94555C14.1849 8.94555 14.0519 8.92022 13.9252 8.86955C13.8049 8.81255 13.6972 8.73972 13.6022 8.65105C13.5135 8.55605 13.4407 8.44838 13.3837 8.32805C13.333 8.20138 13.3077 8.06838 13.3077 7.92905C13.3077 7.78972 13.333 7.65988 13.3837 7.53955C13.4407 7.41288 13.5135 7.30522 13.6022 7.21655C13.6972 7.12155 13.8049 7.04872 13.9252 6.99805C14.0519 6.94105 14.1849 6.91255 14.3242 6.91255C14.4635 6.91255 14.5934 6.94105 14.7137 6.99805C14.8404 7.04872 14.948 7.12155 15.0367 7.21655C15.1317 7.30522 15.2045 7.41288 15.2552 7.53955C15.3122 7.65988 15.3407 7.78972 15.3407 7.92905Z" fill="black"/>
</svg>
